<?xml version="1.0" encoding="UTF-8"?>
<svg width="256" height="256" viewBox="0 0 256 256" fill="none" xmlns="http://www.w3.org/2000/svg">
  <rect width="256" height="256" rx="72" fill="url(#grad)"/>
  <path d="M128.1 197c37.5 0 68-30.5 68-68s-30.5-68-68-68c-37.6 0-68.3 30.5-68.3 68s30.7 68 68.3 68z" fill="#fff"/>
  <path d="M128.1 82.6c15.7 0 26.3 6.8 32.4 12.5l22.3-21.6C171.3 61 151.9 52 128.1 52c-31.7 0-59 18.2-72.6 44.6l25.7 19.9c7.4-17.7 24.4-33.9 46.9-33.9z" fill="#4285F4"/>
  <path d="M200.8 128.8c0-5.9-.5-10.4-1.5-15.2h-71.2v28.8h41.6c-.8 7.2-5.4 18-15.6 25.2l24 18.6c14.4-13.3 22.7-32.9 22.7-57.4z" fill="#34A853"/>
  <path d="M108.1 208.3c20.8 0 38.3-6.9 51.1-18.7l-24-18.6c-6.4 4.5-15.1 7.6-27.1 7.6-20.7 0-38.2-13.9-44.5-33l-26 20.1c13.6 27.6 41.8 42.6 70.5 42.6z" fill="#FBBC04"/>
  <path d="M59.3 145.6c-1.6-4.8-2.5-10-2.5-15.6 0-5.6.9-10.8 2.4-15.6l-26-20c-5.6 11.1-8.8 23.8-8.8 37.5s3.2 26.5 8.8 37.6l26.1-19.9z" fill="#EA4335"/>
  <defs>
    <linearGradient id="grad" x1="0" y1="0" x2="256" y2="256" gradientUnits="userSpaceOnUse">
      <stop stop-color="#1B3A6B"/>
      <stop offset="1" stop-color="#0D1F3A"/>
    </linearGradient>
  </defs>
</svg>
