<?xml version="1.0" encoding="UTF-8"?>
<svg width="256" height="256" viewBox="0 0 256 256" fill="none" xmlns="http://www.w3.org/2000/svg">
  <rect width="256" height="256" rx="72" fill="url(#bg)"/>
  <path d="M64 188L96 68h32l-32 120H64z" fill="#E2E8F0"/>
  <path d="M104 188l12-48h32c28 0 48-18 48-44 0-28-21-44-55-44H108L76 188h28zm24-96l9-36h18c13 0 21 7 21 18 0 12-9 18-21 18h-27z" fill="#F8FAFC"/>
  <path d="M192 180c0 18-15 32-32 32s-32-14-32-32 15-32 32-32 32 14 32 32z" fill="#1E293B"/>
  <path d="M180 180c0 11-9 20-20 20s-20-9-20-20 9-20 20-20 20 9 20 20z" fill="#38BDF8"/>
  <defs>
    <linearGradient id="bg" x1="0" y1="0" x2="256" y2="256" gradientUnits="userSpaceOnUse">
      <stop stop-color="#0F172A"/>
      <stop offset="1" stop-color="#1E293B"/>
    </linearGradient>
  </defs>
</svg>
